<svg xmlns="http://www.w3.org/2000/svg" version="1.1" xmlns:xlink="http://www.w3.org/1999/xlink" xmlns:svgjs="http://svgjs.dev/svgjs" width="100%" height="100%" viewBox="0 0 1000 600"><rect width="1000" height="600" x="0" y="0" fill="#111010"/><g><rect width="333.3333333333333" height="333.3333333333333" rx="13.333333333333334" ry="13.333333333333334" y="174.89239383240601" fill="#ffffff" transform="matrix(0.8187585799575922,0,0,0.8187585799575922,0,20.34559453490334)" x="152.67015075683594"/><path d="M325.8935472206158 416.55906482604985L325.8935472206158 416.55906482604985L267.50888810886346 416.55906482604985L267.50888810886346 266.55907028319655L320.94619989414775 266.55907028319655Q341.1230320629361 266.55907028319655 353.67022016199064 276.7517979076066Q366.2174082610451 286.94452553201666 366.2174082610451 304.7668972261605L366.2174082610451 304.7668972261605Q366.2174082610451 315.4960841992238 361.18065104313484 325.1523524749806Q356.1438938252246 334.80862075073753 346.2790024694359 338.2359999226883L346.2790024694359 338.2359999226883Q357.8724850597737 342.1104285518501 364.5186203236434 351.23023747895377Q371.1647555875131 360.35004640605746 371.1647555875131 373.8509400138287L371.1647555875131 373.8509400138287Q371.1647555875131 385.0271764441029 366.0087851810133 394.772854611302Q360.8528147745135 404.54833607564854 350.779300338693 410.53879880227544Q340.70578590287255 416.55906482604985 325.8935472206158 416.55906482604985ZM317.93606688226055 283.5171463600659L287.0598510375564 283.5171463600659L287.0598510375564 330.93419212157585L317.93606688226055 330.93419212157585Q329.9765989298093 330.93419212157585 337.9042759710171 326.1060579836974Q345.831953012225 321.2779238458189 345.831953012225 307.53860386086853L345.831953012225 307.53860386086853Q345.831953012225 293.5906607958864 337.9042759710171 288.55390357797614Q329.9765989298093 283.5171463600659 317.93606688226055 283.5171463600659L317.93606688226055 283.5171463600659ZM323.5390867459714 347.8922681984452L287.0598510375564 347.8922681984452L287.0598510375564 399.6009887491805L323.5390867459714 399.6009887491805Q337.69565289098534 399.6009887491805 344.2225749662655 392.29918094806794Q350.779300338693 385.0271764441029 350.779300338693 373.6423169337969L350.779300338693 373.6423169337969Q350.779300338693 362.257457423491 344.2225749662655 355.07486281096806Q337.69565289098534 347.8922681984452 323.5390867459714 347.8922681984452L323.5390867459714 347.8922681984452Z " fill="#111010" transform="matrix(0.8187585799575922,0,0,0.8187585799575922,0,20.34559453490334)"/><path d="M627.7214814857525 416.55906482604985L627.7214814857525 416.55906482604985L569.3368223740001 416.55906482604985L569.3368223740001 266.55907028319655L622.7741341592845 266.55907028319655Q642.9509663280728 266.55907028319655 655.4981544271272 276.7517979076066Q668.0453425261818 286.94452553201666 668.0453425261818 304.7668972261605L668.0453425261818 304.7668972261605Q668.0453425261818 315.4960841992238 663.0085853082714 325.1523524749806Q657.9718280903612 334.80862075073753 648.1069367345726 338.2359999226883L648.1069367345726 338.2359999226883Q659.7004193249104 342.1104285518501 666.3465545887801 351.23023747895377Q672.9926898526498 360.35004640605746 672.9926898526498 373.8509400138287L672.9926898526498 373.8509400138287Q672.9926898526498 385.0271764441029 667.83671944615 394.772854611302Q662.6807490396502 404.54833607564854 652.6072346038297 410.53879880227544Q642.5337201680093 416.55906482604985 627.7214814857525 416.55906482604985ZM619.7640011473973 283.5171463600659L588.8877853026931 283.5171463600659L588.8877853026931 330.93419212157585L619.7640011473973 330.93419212157585Q631.804533194946 330.93419212157585 639.7322102361538 326.1060579836974Q647.6598872773616 321.2779238458189 647.6598872773616 307.53860386086853L647.6598872773616 307.53860386086853Q647.6598872773616 293.5906607958864 639.7322102361538 288.55390357797614Q631.804533194946 283.5171463600659 619.7640011473973 283.5171463600659L619.7640011473973 283.5171463600659ZM625.3670210111081 347.8922681984452L588.8877853026931 347.8922681984452L588.8877853026931 399.6009887491805L625.3670210111081 399.6009887491805Q639.5235871561221 399.6009887491805 646.0505092314022 392.29918094806794Q652.6072346038297 385.0271764441029 652.6072346038297 373.6423169337969L652.6072346038297 373.6423169337969Q652.6072346038297 362.257457423491 646.0505092314022 355.07486281096806Q639.5235871561221 347.8922681984452 625.3670210111081 347.8922681984452L625.3670210111081 347.8922681984452ZM747.024079966786 416.55906482604985L747.024079966786 416.55906482604985L698.5341155079698 416.55906482604985L698.5341155079698 266.55907028319655L747.024079966786 266.55907028319655Q766.127993438268 266.55907028319655 778.7943947259122 276.21533855895336Q791.4309927164088 285.8716068347103 797.7790950088046 302.71046972299007Q804.097394004053 319.57913590841724 804.097394004053 341.45475601460726L804.097394004053 341.45475601460726Q804.097394004053 363.33037612079727 797.7790950088046 380.28845219766663Q791.4309927164088 397.246528274536 778.7943947259122 406.9027965502929Q766.127993438268 416.55906482604985 747.024079966786 416.55906482604985ZM743.5967007948353 284.1728188973086L718.472521299579 284.1728188973086L718.472521299579 398.97511950908506L743.5967007948353 398.97511950908506Q764.6080252837507 398.97511950908506 773.9662605880337 383.6264214781752Q783.2946925951692 368.2777234472653 783.2946925951692 341.663379094639L783.2946925951692 341.663379094639Q783.2946925951692 314.84041166198097 773.9662605880337 299.4917136310711Q764.6080252837507 284.1728188973086 743.5967007948353 284.1728188973086L743.5967007948353 284.1728188973086ZM892.9410228004459 416.55906482604985L892.9410228004459 416.55906482604985L834.5861669858409 416.55906482604985L834.5861669858409 266.55907028319655L887.9936754739778 266.55907028319655Q908.1705076427662 266.55907028319655 920.7176957418206 276.7517979076066Q933.2946871380226 286.94452553201666 933.2946871380226 304.7668972261605L933.2946871380226 304.7668972261605Q933.2946871380226 315.4960841992238 928.2281266229649 325.1523524749806Q923.1913694050546 334.80862075073753 913.326478049266 338.2359999226883L913.326478049266 338.2359999226883Q924.9199606396038 342.1104285518501 931.5660959034734 351.23023747895377Q938.2122311673431 360.35004640605746 938.2122311673431 373.8509400138287L938.2122311673431 373.8509400138287Q938.2122311673431 385.0271764441029 933.0562607608433 394.772854611302Q927.9300936514909 404.54833607564854 917.826775918523 410.53879880227544Q907.7532614827026 416.55906482604985 892.9410228004459 416.55906482604985ZM885.013345759238 283.5171463600659L854.1073266173865 283.5171463600659L854.1073266173865 330.93419212157585L885.013345759238 330.93419212157585Q897.0240745096393 330.93419212157585 904.9517515508472 326.1060579836974Q912.9092318892025 321.2779238458189 912.9092318892025 307.53860386086853L912.9092318892025 307.53860386086853Q912.9092318892025 293.5906607958864 904.9517515508472 288.55390357797614Q897.0240745096393 283.5171463600659 885.013345759238 283.5171463600659L885.013345759238 283.5171463600659ZM890.5865623258013 347.8922681984452L854.1073266173865 347.8922681984452L854.1073266173865 399.6009887491805L890.5865623258013 399.6009887491805Q904.7431284708153 399.6009887491805 911.2998538432429 392.29918094806794Q917.826775918523 385.0271764441029 917.826775918523 373.6423169337969L917.826775918523 373.6423169337969Q917.826775918523 362.257457423491 911.2998538432429 355.07486281096806Q904.7431284708153 347.8922681984452 890.5865623258013 347.8922681984452L890.5865623258013 347.8922681984452ZM1068.6910660786507 266.55907028319655L1068.6910660786507 284.1728188973086L1023.8371038718171 284.1728188973086L1023.8371038718171 416.55906482604985L1003.8688947830605 416.55906482604985L1003.8688947830605 284.1728188973086L958.806309496195 284.1728188973086L958.806309496195 266.55907028319655L1068.6910660786507 266.55907028319655Z " fill="#ffffff" transform="matrix(0.8187585799575922,0,0,0.8187585799575922,0,20.34559453490334)"/></g></svg>