<?xml version="1.0" encoding="utf-8"?>
<!-- Generator: Adobe Illustrator 24.1.3, SVG Export Plug-In . SVG Version: 6.00 Build 0)  -->
<svg version="1.1" id="Calque_1" xmlns="http://www.w3.org/2000/svg" xmlns:xlink="http://www.w3.org/1999/xlink" x="0px" y="0px"
	 viewBox="0 0 581.2 148.9"  xml:space="preserve">
<path style="fill:#000000;" d="M534.3,53.9v30h-2.6V12.8h22.2c7.3,0,12.9,1.8,16.9,5.5s6,8.7,6,15.3c0,6.4-2,11.4-5.9,14.9
	s-9.5,5.3-16.7,5.4H534.3L534.3,53.9z M534.3,51.2h19.6c6.4,0,11.4-1.5,15-4.6s5.3-7.4,5.3-12.9c0-5.7-1.8-10.2-5.3-13.4
	c-3.6-3.2-8.6-4.8-15-4.8h-19.6V51.2z"/>
<path style="fill:#000000;" d="M509.4,62.7h-34.8l-7.9,21.2h-2.9l26.6-71.1h3.2l26.6,71.1h-2.9L509.4,62.7z M475.5,60h32.9L492,16
	L475.5,60z"/>
<path style="fill:#000000;" d="M455.5,62.1c-0.7,7.3-3.2,12.9-7.6,16.9c-4.4,3.9-10.3,5.9-17.8,5.9c-5,0-9.5-1.3-13.4-3.8
	c-3.9-2.6-6.9-6.2-9.1-10.9c-2.1-4.7-3.2-10.1-3.3-16.1v-11c0-6.1,1.1-11.5,3.2-16.2c2.1-4.8,5.1-8.5,9.1-11.1
	c3.9-2.6,8.4-3.9,13.5-3.9c7.4,0,13.3,2,17.7,5.9s6.9,9.5,7.6,16.8h-2.6c-0.7-6.5-3-11.5-6.8-14.9s-9.1-5.1-15.9-5.1
	c-6.9,0-12.5,2.6-16.7,7.8S407,34.6,407,43.3v10.4c0,5.6,0.9,10.6,2.8,14.9s4.6,7.7,8.1,10.1s7.6,3.6,12.1,3.6
	c6.8,0,12.1-1.7,15.9-5c3.8-3.4,6.1-8.4,6.8-15.1L455.5,62.1L455.5,62.1L455.5,62.1z"/>
<path style="fill:#000000;" d="M374.2,79.8l0.3-1L392.8,31h2.9l-23.6,62l-1.2,2.9c-2.5,6.2-6.7,9.2-12.6,9.2c-1.9,0-3.2-0.2-3.9-0.5
	v-2.5c1,0.3,2.2,0.4,3.6,0.4c2.8,0,5.1-0.8,6.9-2.4s3.4-4.2,4.7-7.9l3.2-8.7l-21-52.5h2.9L374.2,79.8z"/>
<path style="fill:#000000;" d="M301.5,57c0-8.4,1.8-15,5.3-19.8s8.4-7.1,14.6-7.1c4,0,7.5,0.9,10.5,2.7s5.5,4.5,7.4,8V8.9h2.6v75
	h-2.6v-8.4c-1.8,3-4.2,5.3-7.4,7s-6.7,2.5-10.6,2.5c-6.1,0-11-2.4-14.5-7.3c-3.5-4.8-5.3-11.5-5.3-20V57z M304.3,58
	c0,7.5,1.5,13.4,4.4,17.7s7.2,6.5,12.6,6.5c4.4,0,8.1-1,11.2-2.9s5.4-4.8,6.9-8.5V46c-3-8.9-9-13.3-18-13.3c-5.4,0-9.6,2.1-12.6,6.4
	S304.3,49.7,304.3,58z"/>
<path style="fill:#000000;" d="M244.9,56.5c0-5,1-9.6,2.9-13.6s4.7-7.2,8.2-9.4c3.5-2.2,7.5-3.4,12-3.4c4.4,0,8.4,1.1,11.9,3.3
	s6.3,5.3,8.2,9.3c2,4,3,8.5,3,13.5v2.3c0,5.1-1,9.6-2.9,13.6s-4.6,7.1-8.2,9.4c-3.5,2.2-7.5,3.4-12,3.4s-8.5-1.1-12-3.3
	c-3.5-2.2-6.3-5.3-8.2-9.3c-2-4-2.9-8.5-3-13.5L244.9,56.5L244.9,56.5z M247.6,58.5c0,4.4,0.9,8.4,2.6,12.1s4.2,6.5,7.3,8.6
	c3.1,2.1,6.7,3.1,10.7,3.1c6,0,10.9-2.3,14.7-6.8c3.8-4.5,5.7-10.4,5.7-17.5v-1.5c0-4.3-0.9-8.3-2.6-12c-1.8-3.7-4.2-6.6-7.3-8.6
	c-3.1-2.1-6.6-3.1-10.6-3.1c-6,0-10.9,2.3-14.7,6.9s-5.7,10.4-5.7,17.3L247.6,58.5L247.6,58.5z"/>
<path style="fill:#000000;" d="M190,83.9V12.8h18.7c7.6,0,13.4,1.6,17.4,4.7c3.9,3.1,5.9,7.6,5.9,13.5c0,4.3-1.1,7.9-3.3,10.7
	s-5.3,4.6-9.2,5.4c4.5,0.6,8.2,2.5,11.2,5.8s4.5,7.1,4.5,11.4c0,6.1-2,10.8-5.9,14.3s-9.4,5.2-16.4,5.2L190,83.9L190,83.9z
	 M192.6,46.2h17c6.5,0,11.4-1.2,14.6-3.7c3.3-2.5,4.9-6.4,4.9-11.6c0-10.1-6.7-15.2-20-15.4h-16.7v30.7H192.6z M192.6,48.8v32.5
	h20.6c6,0,10.8-1.5,14.2-4.5s5.2-7.1,5.2-12.4c0-4.5-1.7-8.2-5-11.1s-7.8-4.4-13.3-4.5C214.3,48.8,192.6,48.8,192.6,48.8z"/>
<path id="Tracé_469" style="fill:#000000;" d="M125.9,132.2c0.1,0,0.4-0.1,0.2-0.1C126,132.1,125.7,132.2,125.9,132.2"/>
<path id="Tracé_470" style="fill:#000000;" d="M18.4,81c0.8-0.5,1.6-1.1,2.3-1.8c0.8-0.8,1.5-1.7,2-2.7C25.8,71,68.5,56,75.8,53.6
	c-3.4,0.5-6.1,0.3-42.3,3.2c-5.2,0.4-20-5.2-24.9-6.9c-1.6,5.2,12.8,7.3,10.8,8.9c-6.9,5.7-18.2,7.7-19.2,17.7C0.1,77.8,0,79,0,80.3
	c0,2.3,0.4,5.6,2,6c4.4,0,9.3-2,13.8-3.9C16.7,81.9,17.5,81.5,18.4,81"/>
<path id="Tracé_471" style="fill:#000000;" d="M8.7,35.8c-0.6-0.1,0.1,4.7,1.7,6.3c0.6,1,1.4,1.8,2.3,2.6
	c4.3,3.9,11.1,5.7,15.6,4.2c1.6-0.4,2.4-1.6,2.9-3.2c1.5-6.9,59.3,5,62.5-1.1c-9.3,4.4-69.8-7-80.5-8.3C12,36.3,9.9,35.9,8.7,35.8"
	/>
<path id="Tracé_472" style="fill:#000000;" d="M59,101.8c-11.5,3.4-23.2,9.9-13.7,6.5c19.6-7.1,1.6-1.4-0.3-14
	c-0.2-0.8-0.8-11-1.1-11.9c-1.1-3.2-3.5-7.5-4.1-11.5c-4.2,3.2-10.5,5.2-15.5,10.1c2.4,2.4,6.8,4.8,8.3,8.1c0.4,0.8,0.5,1.7,0.5,2.6
	c-1.5,5.8-8.8,9.5-8,15.5c0.8,4.8,3.2,12.5,7.7,12.5c1.1,0,2.2,0,3.3-0.2s2.1-0.4,3.2-0.7c6.1-1.1,8.5-7.2,12.2-11.2
	C52.1,106.9,58.3,102.4,59,101.8"/>
<path id="Tracé_473" style="fill:#000000;" d="M92.9,25c1.6,0.2,3.3-0.1,4.8-0.7c0.2-0.1,0.4-0.3,0.6-0.5c0.6-0.6,1-1.5,1-2.4
	c0-0.3,0-0.5,0-0.8c-0.3-1.6-1.3-3.1-2.7-4c-0.3-0.2-0.6-0.4-0.8-0.6c-2.1-1.3-4.1-2.5-6.2-3.9c-0.3-0.2-0.6-0.4-0.9-0.6
	C86,10,84,6.7,81.9,4.6c0.5,2.9,2.6,5.9,4.1,8.1c0.2,0.3,0.4,0.6,0.6,0.8c1.7,2.5,3.1,5.2,1.6,8.1c-0.1,0.2-0.3,0.5-0.5,0.7
	s-0.3,0.4-0.5,0.6c1.1,0.4,2.2,0.9,3.3,1.2c0.3,0.1,0.6,0.2,0.9,0.3s0.6,0.2,0.9,0.3C92.5,24.9,92.7,25,92.9,25"/>
<path id="Tracé_474" style="fill:#000000;" d="M101.8,18.1c0.2,0.5,0.4,1,0.7,1.5c1.5,2.2,4.4,2.9,6.7,1.8c0.6-0.2,1.1-0.4,1.7-0.7
	c1.4-0.7,2.7-1.5,3.9-2.4l0.8-0.5c2.3-1.9,5.5-2.3,8.2-1.1c0.3,0.1,0.6,0.3,0.8,0.4c1.4,0.8,2.6,1.9,3.5,3.2
	c0.8,0.9,1.5,1.9,2.1,3.1c0.5,1.1,0.9,2.2,1.2,3.4s0.5,2.4,0.6,3.6c0.4,9.7-12.9,45.9-15.6,56c0.5-3.9,16.4-30.5,18.5-30.1
	c1.6,0.8,2,2.8,3.2,4c0-10.9,2-23.4-4.3-33.3c-0.6-1-1.3-2-2-3c-0.5-0.7-1.1-1.5-1.7-2.2c-0.6-0.7-1.2-1.4-1.8-2.1
	c-1-1.1-2.1-2.3-3.2-3.4c-0.2-0.2-0.4-0.4-0.7-0.7c-1.8-1.7-3.6-3.5-5.5-5c-0.2-0.2-0.5-0.4-0.7-0.6s-0.5-0.4-0.7-0.5
	c-0.5-0.4-1-0.8-1.5-1.1s-1-0.7-1.6-1c-2-1-4.1-1.8-6.4-2.4c-0.5-0.1-1.1-0.3-1.7-0.4C103,3.9,99.4,3.7,95.8,4c-0.3,0-0.7,0.1-1,0.1
	c-2.2,0.5-4.4,1-6.6,0.2c-0.3-0.1-0.6-0.1-0.9-0.2s-0.5,0-0.8-0.1c-0.5-0.1-1-0.3-1.4-0.5c0.4,0.3,0.8,0.7,1.2,1.1L87,5.1
	c0.2,0.2,0.5,0.4,0.7,0.6c1.8,1.8,3.8,3.4,5.9,4.9c0.2,0.2,0.5,0.3,0.7,0.5c1.8,1.4,3.9,2.4,5.4,4.3c0.2,0.2,0.4,0.4,0.6,0.6
	c0.4,0.4,0.7,0.9,1.1,1.3C101.8,18.2,101.7,18,101.8,18.1"/>
<path id="Tracé_475" style="fill:#000000;" d="M58.1,131c1.5,4.1,3.4,8,5.6,11.7c1.3,2.3,2.6,4.3,4,6.2c1.5-5.4,4-10.2,5-15.5
	c0.2-1.1,0.3-2.1,0.3-3.2c0.4-2.8-0.5-6.4-3.3-7.2c-6.5-2.4,33.2-54.5,36.9-64.2c-2.4,4.8-57,60.1-62.1,62.7c-1,0.5-1.9,1-2.9,1.4
	s-2,0.9-3,1.3c4.8,4,10.9,4,16.7,5.5C56.3,129.9,57.3,130.4,58.1,131"/>
<path id="Tracé_476" style="fill:#000000;" d="M153.2,96.1c-0.9-1.2-1.7-2.4-2.4-3.7c-2.6-5.9-5.9-10.9-8.6-16.5
	c-0.6-1.1-1.1-2.2-1.7-3.3c-1.1-2.2-2.2-4.4-3.2-6.7c-0.1-0.4,3.6-2.6,3.8-2.9c-0.5,0.3-5.6,2-6.8,2.3c-0.1,0.2-0.2,0.4-0.3,0.6
	c-0.4,0.6-1.2,0.8-1.8,0.5c0.1,0.6,0.2,1.1,0.4,1.6c4.7,10.4,6.5,21.9,5.4,33.3c-0.2,1.5-0.4,3.1-0.8,4.6c-0.9,4.7-2.3,9.3-4.1,13.8
	c-0.4,0.9-0.8,1.8-1.3,2.6c-0.1,0.2-0.2,0.3-0.3,0.5c-1,2-2.2,3.9-3.4,5.7c-0.2,0.2-0.4,0.4-0.5,0.6c-0.5,0.5-1.1,1-1.7,1.5
	c-2.6,2-42.7-15.2-47.9-16.4c6.1,3.6,53.4,22.8,59.9,20.6c0.9-0.9,1.4-2.1,1.3-3.4c0.2-0.9,0.3-1.9,0.5-2.9c0.4-2.9,0.8-5.9,2.3-8.3
	c0.4-0.8,0.9-1.7,1.4-2.5c1-1.6,1.8-3.4,2.4-5.2c0.1-0.9,0.1-1.9,0-2.8c-0.4-3.5,1.4-6,4.3-6.4c0.9-0.2,1.8-0.4,2.6-0.7
	c0.9-0.3,1.6-0.9,2.2-1.7c0.1-0.3,0.1-0.6,0.1-0.8C154.8,98.6,154.2,97.2,153.2,96.1"/>
<path id="Tracé_477" style="fill:#000000;" d="M71.4,1.6c-0.5-0.3-1-0.5-1.6-0.7c-0.5-0.2-1-0.3-1.5-0.5c-0.5-0.1-1.1-0.2-1.6-0.3
	c-3.9-0.5-8.1,0.5-10.6,4c-0.6,0.7-1.1,1.4-1.6,2c-1.6,2-3.3,3.8-6.1,3.8c-1,0-2,0-3,0c-0.5,0-1,0-1.5,0.1c-1.1,0.2-2.2,0.4-3.3,0.7
	c-0.6,0.2-1.1,0.3-1.7,0.5c-2.1,0.9-4,2.2-5.6,3.9c-0.4,0.4-0.8,0.9-1.1,1.3s-0.6,0.7-0.8,1.1c-0.3,0.5-0.6,1.1-0.8,1.6
	c-0.3,1.1-0.8,2.1-1.2,3.2c-0.2,0.5-0.5,1-0.8,1.5c-0.5,0.7-1,1.5-1.4,2.1c-0.3,0.3-0.5,0.6-0.8,0.9s-0.6,0.6-0.9,0.9
	c-0.4,0.4-0.9,0.7-1.3,1c-4.4,2-8.9,3.6-13.7,4.5c4.5-0.2,9.4-1.5,13.7-2.6c0.5-0.1,1.1-0.2,1.6-0.3s1.1-0.2,1.6-0.3
	c1.4-0.3,2.8-0.6,4.3-0.9c0.5-0.1,1-0.2,1.4-0.3c5.3-1.1,11-1.2,16.4-2.3c0.6-0.1,1.3-0.2,1.9-0.2c0.6-0.1,1.3-0.1,1.9-0.2
	c0.7-0.1,1.3-0.2,2-0.3c0.6-0.1,1.1-0.2,1.7-0.4c0.6-0.1,1.1-0.3,1.6-0.5c3.6-1,6.3-3.5,9.6-5.1c2.4-1.2,5.1-1.5,7.7-1
	c0.5,0.1,1.1,0.2,1.6,0.3c2.7,0.6,5.3,1.5,7.8,2.6c-0.5-3.9-2.9-7.1-5.1-10.4c-0.2-0.3-0.5-0.7-0.7-1c-0.7-1-1.5-2-2.2-3
	c-0.4-0.5-0.7-1-1.1-1.5c-0.3-0.4-0.6-0.9-1-1.3C74.1,3.5,72.8,2.4,71.4,1.6"/>
<g>
	<path style="fill:#000000;" d="M198.3,123.5l5.9-11.1h2.8l-7.4,13.6v8.6H197v-8.5l-7.4-13.7h2.8L198.3,123.5z"/>
	<path style="fill:#000000;" d="M224.1,126.2c0,2.7-0.7,4.8-2.1,6.4c-1.4,1.5-3.3,2.3-5.7,2.3c-1.5,0-2.8-0.4-4-1.1
		c-1.2-0.7-2-1.7-2.7-3s-0.9-2.8-0.9-4.6c0-2.7,0.7-4.8,2-6.4s3.2-2.3,5.7-2.3c2.3,0,4.2,0.8,5.6,2.3
		C223.4,121.5,224.1,123.6,224.1,126.2z M211.4,126.2c0,2.1,0.4,3.8,1.3,4.9s2.1,1.7,3.8,1.7c1.7,0,2.9-0.6,3.8-1.7
		c0.9-1.1,1.3-2.7,1.3-4.9c0-2.1-0.4-3.7-1.3-4.8c-0.9-1.1-2.1-1.7-3.8-1.7c-1.7,0-2.9,0.5-3.7,1.6
		C211.8,122.5,211.4,124.1,211.4,126.2z"/>
	<path style="fill:#000000;" d="M230.9,117.9v10.8c0,1.4,0.3,2.4,0.9,3c0.6,0.7,1.6,1,2.9,1c1.7,0,3-0.5,3.8-1.4
		c0.8-1,1.2-2.5,1.2-4.7v-8.8h2.5v16.7h-2.1l-0.4-2.2h-0.1c-0.5,0.8-1.2,1.5-2.2,1.9c-0.9,0.4-2,0.7-3.1,0.7c-2,0-3.5-0.5-4.6-1.4
		c-1-1-1.5-2.5-1.5-4.6v-10.9H230.9z"/>
	<path style="fill:#000000;" d="M255.3,117.6c0.7,0,1.4,0.1,2,0.2l-0.3,2.3c-0.7-0.2-1.3-0.2-1.8-0.2c-1.3,0-2.5,0.5-3.5,1.6
		s-1.4,2.5-1.4,4.1v8.9h-2.5v-16.7h2.1l0.3,3.1h0.1c0.6-1.1,1.4-1.9,2.2-2.5C253.3,117.9,254.2,117.6,255.3,117.6z"/>
	<path style="fill:#000000;" d="M275.5,134.9c-2.5,0-4.4-0.8-5.8-2.3c-1.4-1.5-2.1-3.6-2.1-6.3c0-2.7,0.7-4.8,2-6.4
		c1.3-1.6,3.1-2.4,5.3-2.4c2.1,0,3.7,0.7,5,2.1s1.8,3.2,1.8,5.4v1.6h-11.5c0.1,2,0.5,3.4,1.5,4.5c0.9,1,2.3,1.5,4,1.5
		c1.8,0,3.6-0.4,5.3-1.1v2.3c-0.9,0.4-1.7,0.7-2.5,0.8C277.6,134.8,276.7,134.9,275.5,134.9z M274.8,119.7c-1.3,0-2.4,0.4-3.2,1.3
		c-0.8,0.9-1.3,2.1-1.4,3.6h8.7c0-1.6-0.4-2.8-1.1-3.7C277.2,120.1,276.2,119.7,274.8,119.7z"/>
	<path style="fill:#000000;" d="M284.6,127.4v-2.3h7.5v2.3H284.6z"/>
	<path style="fill:#000000;" d="M307.4,134.6v-10.8c0-1.4-0.3-2.4-0.9-3c-0.6-0.7-1.6-1-2.9-1c-1.8,0-3,0.5-3.8,1.4
		c-0.8,1-1.2,2.5-1.2,4.7v8.7H296v-23.7h2.5v7.2c0,0.9,0,1.6-0.1,2.1h0.2c0.5-0.8,1.2-1.4,2.1-1.9c0.9-0.5,2-0.7,3.1-0.7
		c2,0,3.6,0.5,4.6,1.5s1.5,2.5,1.5,4.6v10.9H307.4z"/>
	<path style="fill:#000000;" d="M322.2,134.9c-2.5,0-4.4-0.8-5.8-2.3c-1.4-1.5-2.1-3.6-2.1-6.3c0-2.7,0.7-4.8,2-6.4
		c1.3-1.6,3.1-2.4,5.3-2.4c2.1,0,3.7,0.7,5,2.1c1.2,1.4,1.8,3.2,1.8,5.4v1.6h-11.5c0.1,2,0.5,3.4,1.5,4.5s2.3,1.5,4,1.5
		c1.8,0,3.6-0.4,5.3-1.1v2.3c-0.9,0.4-1.7,0.7-2.5,0.8C324.3,134.8,323.3,134.9,322.2,134.9z M321.5,119.7c-1.3,0-2.4,0.4-3.2,1.3
		c-0.8,0.9-1.3,2.1-1.4,3.6h8.7c0-1.6-0.4-2.8-1.1-3.7C323.8,120.1,322.8,119.7,321.5,119.7z"/>
	<path style="fill:#000000;" d="M342.9,134.6l-0.5-2.4h-0.1c-0.8,1-1.7,1.8-2.5,2.1s-1.9,0.6-3.1,0.6c-1.7,0-2.9-0.4-3.9-1.3
		c-0.9-0.9-1.4-2.1-1.4-3.6c0-3.4,2.7-5.1,8.1-5.3l2.8-0.1v-1c0-1.3-0.3-2.3-0.8-2.9c-0.6-0.6-1.5-0.9-2.7-0.9c-1.4,0-3,0.4-4.7,1.3
		l-0.8-1.9c0.8-0.4,1.7-0.8,2.7-1c1-0.3,2-0.4,2.9-0.4c2,0,3.5,0.4,4.4,1.3s1.4,2.3,1.4,4.2v11.4H342.9z M337.2,132.8
		c1.6,0,2.8-0.4,3.7-1.3c0.9-0.9,1.3-2.1,1.3-3.6v-1.5l-2.5,0.1c-2,0.1-3.5,0.4-4.3,0.9s-1.3,1.4-1.3,2.6c0,0.9,0.3,1.6,0.8,2.1
		C335.4,132.6,336.2,132.8,337.2,132.8z"/>
	<path style="fill:#000000;" d="M352.5,134.6h-2.5v-23.7h2.5V134.6z"/>
	<path style="fill:#000000;" d="M363.2,132.8c0.4,0,0.9,0,1.3-0.1c0.4-0.1,0.7-0.1,1-0.2v1.9c-0.3,0.1-0.7,0.2-1.2,0.3
		s-1,0.1-1.4,0.1c-3.2,0-4.8-1.7-4.8-5.1v-9.9h-2.4v-1.2l2.4-1.1l1.1-3.6h1.5v3.9h4.8v2h-4.8v9.8c0,1,0.2,1.8,0.7,2.3
		C361.7,132.5,362.4,132.8,363.2,132.8z"/>
	<path style="fill:#000000;" d="M380.2,134.6v-10.8c0-1.4-0.3-2.4-0.9-3c-0.6-0.7-1.6-1-2.9-1c-1.8,0-3,0.5-3.8,1.4
		c-0.8,1-1.2,2.5-1.2,4.7v8.7h-2.5v-23.7h2.5v7.2c0,0.9,0,1.6-0.1,2.1h0.2c0.5-0.8,1.2-1.4,2.1-1.9c0.9-0.5,2-0.7,3.1-0.7
		c2,0,3.6,0.5,4.6,1.5s1.5,2.5,1.5,4.6v10.9H380.2z"/>
	<path style="fill:#000000;" d="M403.8,134.9c-1.1,0-2.1-0.2-3-0.6s-1.7-1-2.3-1.8h-0.2c0.1,1,0.2,1.9,0.2,2.8v6.9H396v-24.2h2.1
		l0.3,2.3h0.1c0.6-0.9,1.4-1.6,2.3-2c0.9-0.4,1.9-0.6,3-0.6c2.2,0,3.9,0.8,5.1,2.3s1.8,3.6,1.8,6.4c0,2.7-0.6,4.9-1.8,6.4
		C407.7,134.1,406,134.9,403.8,134.9z M403.4,119.7c-1.7,0-2.9,0.5-3.7,1.4s-1.2,2.4-1.2,4.5v0.6c0,2.3,0.4,4,1.2,5
		c0.8,1,2,1.5,3.8,1.5c1.4,0,2.6-0.6,3.4-1.8c0.8-1.2,1.2-2.8,1.2-4.8c0-2.1-0.4-3.7-1.2-4.8C406.1,120.3,404.9,119.7,403.4,119.7z"
		/>
	<path style="fill:#000000;" d="M425.4,134.6l-0.5-2.4h-0.1c-0.8,1-1.7,1.8-2.5,2.1s-1.9,0.6-3.1,0.6c-1.7,0-2.9-0.4-3.9-1.3
		c-0.9-0.9-1.4-2.1-1.4-3.6c0-3.4,2.7-5.1,8.1-5.3l2.8-0.1v-1c0-1.3-0.3-2.3-0.8-2.9c-0.6-0.6-1.5-0.9-2.7-0.9c-1.4,0-3,0.4-4.7,1.3
		l-0.8-1.9c0.8-0.4,1.7-0.8,2.7-1c1-0.3,2-0.4,2.9-0.4c2,0,3.5,0.4,4.4,1.3s1.4,2.3,1.4,4.2v11.4H425.4z M419.7,132.8
		c1.6,0,2.8-0.4,3.7-1.3c0.9-0.9,1.3-2.1,1.3-3.6v-1.5l-2.5,0.1c-2,0.1-3.5,0.4-4.3,0.9s-1.3,1.4-1.3,2.6c0,0.9,0.3,1.6,0.8,2.1
		C417.9,132.6,418.7,132.8,419.7,132.8z"/>
	<path style="fill:#000000;" d="M440.1,117.6c0.7,0,1.4,0.1,2,0.2l-0.4,2.3c-0.7-0.2-1.3-0.2-1.8-0.2c-1.3,0-2.5,0.5-3.5,1.6
		c-1,1.1-1.4,2.5-1.4,4.1v8.9h-2.5v-16.7h2.1l0.3,3.1h0.1c0.6-1.1,1.4-1.9,2.2-2.5C438.1,117.9,439,117.6,440.1,117.6z"/>
	<path style="fill:#000000;" d="M450.6,132.8c0.4,0,0.9,0,1.3-0.1c0.4-0.1,0.7-0.1,1-0.2v1.9c-0.3,0.1-0.7,0.2-1.2,0.3
		s-1,0.1-1.4,0.1c-3.2,0-4.8-1.7-4.8-5.1v-9.9H443v-1.2l2.4-1.1l1.1-3.6h1.5v3.9h4.8v2h-4.8v9.8c0,1,0.2,1.8,0.7,2.3
		C449.1,132.5,449.8,132.8,450.6,132.8z"/>
	<path style="fill:#000000;" d="M467.6,134.6v-10.8c0-1.4-0.3-2.4-0.9-3c-0.6-0.7-1.6-1-2.9-1c-1.7,0-3,0.5-3.8,1.4
		c-0.8,0.9-1.2,2.5-1.2,4.7v8.8h-2.5v-16.7h2.1l0.4,2.3h0.1c0.5-0.8,1.2-1.5,2.2-1.9c0.9-0.5,2-0.7,3.1-0.7c2,0,3.5,0.5,4.5,1.5
		c1,1,1.5,2.5,1.5,4.6v10.9H467.6z"/>
	<path style="fill:#000000;" d="M482.4,134.9c-2.5,0-4.4-0.8-5.8-2.3c-1.4-1.5-2.1-3.6-2.1-6.3c0-2.7,0.7-4.8,2-6.4
		c1.3-1.6,3.1-2.4,5.3-2.4c2.1,0,3.7,0.7,5,2.1c1.2,1.4,1.8,3.2,1.8,5.4v1.6H477c0.1,2,0.5,3.4,1.5,4.5s2.3,1.5,4,1.5
		c1.8,0,3.6-0.4,5.3-1.1v2.3c-0.9,0.4-1.7,0.7-2.5,0.8C484.5,134.8,483.5,134.9,482.4,134.9z M481.7,119.7c-1.3,0-2.4,0.4-3.2,1.3
		c-0.8,0.9-1.3,2.1-1.4,3.6h8.7c0-1.6-0.4-2.8-1.1-3.7C484,120.1,483,119.7,481.7,119.7z"/>
	<path style="fill:#000000;" d="M500.4,117.6c0.7,0,1.4,0.1,2,0.2l-0.4,2.3c-0.7-0.2-1.3-0.2-1.8-0.2c-1.3,0-2.5,0.5-3.5,1.6
		c-1,1.1-1.4,2.5-1.4,4.1v8.9h-2.5v-16.7h2.1l0.3,3.1h0.1c0.6-1.1,1.4-1.9,2.2-2.5C498.4,117.9,499.4,117.6,500.4,117.6z"/>
</g>
</svg>
