<svg xmlns="http://www.w3.org/2000/svg" viewBox="0 0 335.55 95.83">
  <defs>
    <style>
      .cls-1 {
        fill: #00a5a8;
      }

      .cls-2 {
        fill: #353f52;
      }

      .cls-3 {
        fill: #8dc4c7;
      }
    </style>
  </defs>
  <g id="Calque_2" data-name="Calque 2">
    <g id="Calque_1-2" data-name="Calque 1">
      <g>
        <g>
          <path class="cls-1" d="M81.76,72.9V44.09h9.83a14.78,14.78,0,0,1,5.35.94,11.69,11.69,0,0,1,4.24,2.77A12.85,12.85,0,0,1,104,52.31a17.53,17.53,0,0,1,1,6.16,18.51,18.51,0,0,1-.88,5.88,12.65,12.65,0,0,1-2.57,4.56,11.72,11.72,0,0,1-4.18,2.94,14.52,14.52,0,0,1-5.7,1.05Zm4.66-4.55h5.1a10.06,10.06,0,0,0,3.77-.67,7.4,7.4,0,0,0,2.77-1.93,8.27,8.27,0,0,0,1.71-3.07,13.71,13.71,0,0,0,.58-4.12,14.28,14.28,0,0,0-.54-4.05,8.61,8.61,0,0,0-1.64-3.12,7.54,7.54,0,0,0-2.76-2,9.85,9.85,0,0,0-3.89-.72h-5.1Z"/>
          <path class="cls-1" d="M112.91,72.9V44.09h17.36v4.58H117.55v7.71h11v4.53h-11v7.44h12.88V72.9Z"/>
          <path class="cls-1" d="M135.81,72.9V68.35h2.94a3.77,3.77,0,0,0,3.23-1.3,5.82,5.82,0,0,0,1-3.62V44.09h4.62V63.45a12.42,12.42,0,0,1-.61,4.08,7.94,7.94,0,0,1-1.74,3,7,7,0,0,1-2.78,1.8,10.83,10.83,0,0,1-3.72.6Z"/>
          <path class="cls-1" d="M178.41,72.9h-4.92l-2-5.49H159.83l-2,5.49h-4.9l10.54-28.83h4.39ZM165.66,51l-.15.74-4,11.12h8.38l-4-11.12-.15-.74Z"/>
          <path class="cls-2" d="M198.24,64.39H197l-7.5-11.68V72.9h-4.64V44.09h4l8.73,13.33,8.77-13.33h4.06V72.9h-4.63V52.75Z"/>
          <path class="cls-2" d="M218.27,58.45a16,16,0,0,1,1.08-5.9,15.35,15.35,0,0,1,2.93-4.77,13.56,13.56,0,0,1,4.35-3.2,12.77,12.77,0,0,1,10.68,0,13.53,13.53,0,0,1,4.37,3.2,15.19,15.19,0,0,1,2.94,4.77,16.6,16.6,0,0,1,0,11.78,15.41,15.41,0,0,1-2.94,4.79,13.74,13.74,0,0,1-4.37,3.22,12.67,12.67,0,0,1-10.68,0,13.77,13.77,0,0,1-4.35-3.22,15.57,15.57,0,0,1-2.93-4.79A15.91,15.91,0,0,1,218.27,58.45Zm4.64,0a11.94,11.94,0,0,0,.71,4.15,10.7,10.7,0,0,0,1.95,3.32,9.13,9.13,0,0,0,2.88,2.22A8,8,0,0,0,232,69a8.11,8.11,0,0,0,3.56-.8,9.06,9.06,0,0,0,2.89-2.22,10.47,10.47,0,0,0,1.93-3.32,12.48,12.48,0,0,0,0-8.3A10.52,10.52,0,0,0,238.42,51a9.06,9.06,0,0,0-2.89-2.22A8,8,0,0,0,232,48a7.83,7.83,0,0,0-3.52.8A9.13,9.13,0,0,0,225.57,51a10.75,10.75,0,0,0-1.95,3.33A12,12,0,0,0,222.91,58.47Z"/>
          <path class="cls-2" d="M265.64,72.9h-12.1V44.09h11a8.83,8.83,0,0,1,3.15.54,6.77,6.77,0,0,1,4,4,8.83,8.83,0,0,1,.56,3.27,6.64,6.64,0,0,1-.25,1.84,7.56,7.56,0,0,1-.69,1.65,6.3,6.3,0,0,1-1,1.35,4.44,4.44,0,0,1-1.26.9,6.42,6.42,0,0,1,1.8,1,7.82,7.82,0,0,1,1.48,1.56,7.93,7.93,0,0,1,1,2,7.45,7.45,0,0,1,.37,2.31,9.28,9.28,0,0,1-.69,3.74,7.57,7.57,0,0,1-1.83,2.61,7.48,7.48,0,0,1-2.6,1.53A9,9,0,0,1,265.64,72.9Zm-1.33-24.42h-6.16v7.6h6.16a2.81,2.81,0,0,0,1.23-.29,3.55,3.55,0,0,0,1-.78,3.76,3.76,0,0,0,.72-1.2,4.39,4.39,0,0,0,0-3,4,4,0,0,0-.72-1.2,3.66,3.66,0,0,0-1-.81A2.68,2.68,0,0,0,264.31,48.48Zm-6.16,11.65v8.36h7a3.33,3.33,0,0,0,1.32-.28,3.79,3.79,0,0,0,1.21-.83,4.24,4.24,0,0,0,.88-1.31,4.86,4.86,0,0,0,0-3.44,4.14,4.14,0,0,0-.8-1.33,3.44,3.44,0,0,0-2.62-1.17Z"/>
          <path class="cls-2" d="M281.09,72.9V44.09h4.63V72.9Z"/>
          <path class="cls-2" d="M294.66,72.9V44.09h4.64V68.35h11.43V72.9Z"/>
          <path class="cls-2" d="M318,72.9V44.09h17.35v4.58H322.66v7.71h11v4.53h-11v7.44h12.89V72.9Z"/>
        </g>
        <g>
          <path class="cls-2" d="M91.14,95.64h-1.2l-1-2.3h-5l-1,2.3h-1.2l4.15-9.83H87Zm-4.69-8.36,0,.16-2.07,4.91h4.22l-2.07-4.91Z"/>
          <path class="cls-1" d="M102.83,92.34h-.33L99,87.69v8H97.9V85.81h1l3.8,5,3.8-5h1v9.83h-1.12V87.7Z"/>
          <path class="cls-1" d="M119.29,95.64h-1.2l-1-2.3h-5l-1,2.3h-1.19l4.14-9.83h1.1Zm-4.69-8.36,0,.16-2.07,4.91h4.21l-2.06-4.91Z"/>
          <path class="cls-1" d="M129.3,95.64H128l-2.21-3.71H122.9v3.71h-1.13V85.81h4.13a3.55,3.55,0,0,1,1.28.22,3,3,0,0,1,1,.62,2.76,2.76,0,0,1,.67,1,3.31,3.31,0,0,1,.23,1.25,3.42,3.42,0,0,1-.15,1,3.11,3.11,0,0,1-.44.85,2.72,2.72,0,0,1-.67.64,3.21,3.21,0,0,1-.88.4Zm-6.4-4.71h3a2.32,2.32,0,0,0,.84-.15,2,2,0,0,0,.66-.42,1.83,1.83,0,0,0,.44-.64,2.34,2.34,0,0,0,.16-.85,2.23,2.23,0,0,0-.16-.83,1.93,1.93,0,0,0-.45-.66,2,2,0,0,0-.67-.42,2.32,2.32,0,0,0-.84-.15H122.9Z"/>
          <path class="cls-1" d="M133.27,85.81v6.38l5.19-6.38h1.34l-3.56,4.34L140,95.64h-1.36L135.51,91l-2.24,2.7v1.94h-1.13V85.81Z"/>
          <path class="cls-1" d="M142.57,95.64V85.81H149v1h-5.3v3.46h4.61v1h-4.61v3.37h5.36v1Z"/>
          <path class="cls-1" d="M154.26,95.64V86.81h-3.13v-1h7.4v1h-3.14v8.83Z"/>
          <path class="cls-1" d="M169.53,92.17h-2.87v3.47h-1.12V85.81h4a3.28,3.28,0,0,1,1.28.24,3,3,0,0,1,1.68,1.67A3.31,3.31,0,0,1,172.7,89a3.26,3.26,0,0,1-.23,1.27,3.05,3.05,0,0,1-.66,1,3.11,3.11,0,0,1-1,.66A3.55,3.55,0,0,1,169.53,92.17Zm-2.87-1h2.83a2,2,0,0,0,.83-.16,2,2,0,0,0,.66-.46,2.08,2.08,0,0,0,.44-.69,2.23,2.23,0,0,0,.16-.86,2.43,2.43,0,0,0-.16-.86,2.21,2.21,0,0,0-.45-.7,2.09,2.09,0,0,0-1.51-.63h-2.8Z"/>
          <path class="cls-1" d="M182.48,95.64h-1.19l-1-2.3h-5l-1,2.3h-1.2l4.14-9.83h1.1Zm-4.68-8.36,0,.16-2.07,4.91h4.21l-2.06-4.91Z"/>
          <path class="cls-1" d="M190,85.81h1.35l-4,6v3.78h-1.13V91.87l-4-6.06h1.34l3.18,5h0Z"/>
          <path class="cls-2" d="M207.58,88.85h-1.16a4,4,0,0,0-.62-.94,4.16,4.16,0,0,0-.85-.72,4.53,4.53,0,0,0-1-.45,4.22,4.22,0,0,0-1.13-.15,4.05,4.05,0,0,0-2.88,1.19,4.25,4.25,0,0,0-.88,1.31,4.29,4.29,0,0,0,0,3.25,4.2,4.2,0,0,0,.88,1.3,4.08,4.08,0,0,0,1.29.87,3.9,3.9,0,0,0,1.59.32,4.28,4.28,0,0,0,1.13-.15,4.65,4.65,0,0,0,1-.45,4.06,4.06,0,0,0,.85-.7,3.74,3.74,0,0,0,.62-.94h1.17a4.29,4.29,0,0,1-.77,1.37,4.91,4.91,0,0,1-1.13,1,5.41,5.41,0,0,1-1.38.64,5.21,5.21,0,0,1-1.51.22,5.23,5.23,0,0,1-3.68-1.49A5.32,5.32,0,0,1,198,92.71a4.91,4.91,0,0,1-.4-2,5,5,0,0,1,.4-2,5.32,5.32,0,0,1,1.12-1.63,5.23,5.23,0,0,1,3.68-1.49,5.09,5.09,0,0,1,1.5.22,4.81,4.81,0,0,1,1.38.63,5,5,0,0,1,1.14,1A4.18,4.18,0,0,1,207.58,88.85Z"/>
          <path class="cls-2" d="M210.06,90.72a5,5,0,0,1,.41-2A5.26,5.26,0,0,1,217.29,86a5.14,5.14,0,0,1,2.78,2.72,5,5,0,0,1,.4,2,4.91,4.91,0,0,1-.4,2,5.14,5.14,0,0,1-2.78,2.72,5.2,5.2,0,0,1-6.82-2.72A4.92,4.92,0,0,1,210.06,90.72Zm1.12,0a4.16,4.16,0,0,0,1.2,2.92,4.08,4.08,0,0,0,1.29.87,3.9,3.9,0,0,0,1.59.32,3.83,3.83,0,0,0,1.59-.32,4,4,0,0,0,1.3-.87,4.2,4.2,0,0,0,.88-1.3,4.29,4.29,0,0,0,0-3.25,4.25,4.25,0,0,0-.88-1.31,4.1,4.1,0,0,0-2.89-1.19,4,4,0,0,0-3.75,2.5A4,4,0,0,0,211.18,90.72Z"/>
          <path class="cls-2" d="M228.5,92.34h-.33l-3.47-4.65v8h-1.13V85.81h1l3.8,5,3.8-5h1v9.83H232V87.7Z"/>
          <path class="cls-2" d="M240.72,92.17h-2.87v3.47h-1.12V85.81h4a3.4,3.4,0,0,1,1.29.24,3.11,3.11,0,0,1,1,.66,3,3,0,0,1,.67,1,3.31,3.31,0,0,1,.23,1.28,3.26,3.26,0,0,1-.23,1.27A2.94,2.94,0,0,1,242,91.94,3.46,3.46,0,0,1,240.72,92.17Zm-2.87-1h2.83a2.08,2.08,0,0,0,.83-.16,2,2,0,0,0,.66-.46,2.08,2.08,0,0,0,.44-.69,2.28,2.28,0,0,0-.45-2.42,1.86,1.86,0,0,0-.67-.46,1.9,1.9,0,0,0-.83-.17h-2.81Z"/>
          <path class="cls-2" d="M253.67,95.64h-1.19l-1-2.3h-5l-1,2.3H244.3l4.14-9.83h1.1ZM249,87.28l0,.16-2.07,4.91h4.21L249,87.44Z"/>
          <path class="cls-2" d="M264.42,85.81v9.83h-.95l-6.19-7.82v7.82h-1.12V85.81h.93l6.2,7.84V85.81Z"/>
          <path class="cls-2" d="M274.64,85.81H276l-4,6v3.78h-1.13V91.87l-4-6.06h1.34l3.19,5h0Z"/>
        </g>
      </g>
      <path class="cls-2" d="M81.39,16.16a17.12,17.12,0,0,0-33.85-2.57,2.5,2.5,0,0,1-.07.26L43.31,34.24H64.45l.26,0A17.13,17.13,0,0,0,81.39,16.16Z"/>
      <path class="cls-1" d="M40.94,38.12A1.92,1.92,0,0,1,39,35.8l4.58-22.5H14.87a1.59,1.59,0,0,0-1.55,1.25L0,77.11a1.44,1.44,0,0,0,1.41,1.74H41.18a1,1,0,0,0,.92-.75l8.5-40Z"/>
      <path class="cls-3" d="M65.14,38.09l-.36,0H50.6l-8.5,40a1,1,0,0,1-.92.75h-26L12,94.09a1.44,1.44,0,0,0,1.41,1.74H53.1a1,1,0,0,0,.92-.75L66.15,38C65.82,38,65.48,38.08,65.14,38.09Z"/>
    </g>
  </g>
</svg>
